<?xml version="1.0" standalone="no"?>
<!DOCTYPE svg PUBLIC "-//W3C//DTD SVG 20010904//EN"
 "http://www.w3.org/TR/2001/REC-SVG-20010904/DTD/svg10.dtd">
<svg version="1.0" xmlns="http://www.w3.org/2000/svg"
 width="222.000000pt" height="78.000000pt" viewBox="0 0 222.000000 78.000000"
 preserveAspectRatio="xMidYMid meet">

<g transform="translate(0.000000,78.000000) scale(0.100000,-0.100000)"
fill="#000000" stroke="none">
<path d="M249 398 c-118 -204 -215 -377 -217 -385 -3 -11 73 -13 432 -13 240
0 436 4 436 9 0 6 -425 749 -434 758 -1 1 -99 -165 -217 -369z m430 -23 l201
-350 -204 -3 c-113 -1 -300 -1 -416 0 l-210 3 140 245 c254 441 272 472 280
463 4 -4 98 -165 209 -358z"/>
<path d="M419 513 c-13 -17 -13 -17 6 -3 11 8 22 16 24 17 2 2 0 3 -6 3 -6 0
-17 -8 -24 -17z"/>
<path d="M513 507 c12 -13 24 -22 26 -20 6 4 -30 43 -40 43 -5 0 2 -10 14 -23z"/>
<path d="M460 460 c0 -5 5 -10 10 -10 6 0 10 5 10 10 0 6 -4 10 -10 10 -5 0
-10 -4 -10 -10z"/>
<path d="M400 441 c0 -6 4 -13 10 -16 6 -3 7 1 4 9 -7 18 -14 21 -14 7z"/>
<path d="M458 393 c6 -2 18 -2 25 0 6 3 1 5 -13 5 -14 0 -19 -2 -12 -5z"/>
<path d="M472 330 c0 -14 2 -19 5 -12 2 6 2 18 0 25 -3 6 -5 1 -5 -13z"/>
<path d="M374 314 c3 -9 6 -20 6 -25 0 -6 5 -7 12 -3 8 5 9 -5 4 -37 -4 -24
-7 -52 -7 -62 0 -10 -5 -15 -11 -11 -6 4 -8 -1 -3 -15 4 -13 1 -27 -9 -37 -19
-18 -19 -24 -3 -46 17 -21 59 -27 65 -9 2 8 0 11 -5 8 -6 -4 -8 4 -5 18 3 20
1 24 -12 19 -24 -9 -20 33 8 82 17 30 21 50 17 75 l-5 34 -7 -40 c-7 -37 -7
-37 -6 13 2 48 0 52 -22 52 -17 0 -22 -4 -17 -16z"/>
<path d="M535 309 c5 -16 4 -19 -5 -14 -9 5 -10 1 -5 -15 4 -14 3 -20 -3 -17
-15 10 -8 -24 16 -73 27 -57 28 -80 2 -80 -15 0 -20 -7 -20 -24 0 -30 9 -37
37 -30 23 6 39 44 23 54 -5 3 -11 22 -12 42 -2 20 -7 34 -12 30 -5 -3 -7 2 -3
11 3 9 2 30 -3 47 -7 26 -5 36 10 52 22 24 18 38 -11 38 -16 0 -19 -4 -14 -21z
m15 -104 c0 -5 -5 -3 -10 5 -5 8 -10 20 -10 25 0 6 5 3 10 -5 5 -8 10 -19 10
-25z"/>
<path d="M471 254 c0 -11 3 -14 6 -6 3 7 2 16 -1 19 -3 4 -6 -2 -5 -13z"/>
<path d="M920 360 l0 -250 650 0 650 0 0 250 0 250 -650 0 -650 0 0 -250z
m509 199 c35 -16 74 -29 87 -29 15 0 24 -6 24 -15 0 -8 -9 -15 -20 -15 -18 0
-20 -7 -20 -60 l0 -60 -30 0 c-28 0 -30 3 -30 35 0 34 -1 35 -39 35 -50 0 -60
-15 -25 -33 l28 -14 -23 -12 c-18 -10 -28 -9 -54 6 -66 39 -39 83 49 83 29 0
56 5 59 10 4 6 -28 10 -89 10 l-96 0 0 -61 0 -60 -32 3 c-33 3 -33 4 -34 58
-1 50 -3 55 -25 58 -35 4 -52 -37 -24 -59 17 -15 18 -19 5 -34 -8 -10 -15 -25
-15 -34 0 -9 -4 -16 -10 -16 -14 0 -105 25 -135 37 -23 9 -24 11 -7 23 15 11
15 14 2 25 -24 20 -17 39 18 49 l32 9 -42 1 c-31 1 -43 5 -43 16 0 12 19 15
115 15 85 0 115 3 115 13 1 62 139 71 259 16z m650 0 c35 -16 74 -29 87 -29
15 0 24 -6 24 -15 0 -8 -6 -15 -14 -15 -18 0 -26 -22 -26 -76 0 -42 -1 -44
-30 -44 -28 0 -30 3 -30 35 0 34 -1 35 -40 35 -44 0 -57 -23 -19 -35 20 -7 20
-8 5 -23 -15 -15 -19 -15 -51 2 -73 40 -51 86 41 86 29 0 56 5 59 10 4 6 -28
10 -89 10 l-96 0 0 -60 0 -60 -30 0 -30 0 0 60 c0 59 -1 60 -27 60 -36 0 -62
-46 -32 -55 23 -8 25 -28 4 -45 -8 -7 -12 -16 -9 -21 14 -23 -12 -25 -78 -8
-82 22 -105 37 -70 46 l23 6 -21 19 c-24 22 -14 44 23 51 13 2 6 5 -15 6 -27
1 -38 6 -38 16 0 12 19 15 114 15 111 0 115 1 118 23 7 54 136 57 247 6z
m-803 -264 c25 -25 27 -25 199 -25 112 0 176 -4 180 -11 4 -6 -2 -13 -14 -16
-18 -5 -21 -13 -21 -59 0 -51 -2 -54 -24 -54 -23 0 -25 4 -28 53 -3 45 -6 52
-25 55 -20 3 -22 -2 -25 -50 -3 -50 -5 -53 -30 -56 -28 -3 -28 -2 -28 52 0 49
-2 56 -20 56 -15 0 -20 -7 -20 -29 0 -38 -20 -54 -53 -42 -32 12 -43 29 -23
37 28 11 18 34 -14 34 -30 0 -30 0 -30 -56 0 -54 0 -55 -27 -52 -26 3 -28 6
-29 53 -1 43 -4 50 -22 53 -20 3 -22 -1 -22 -52 0 -56 0 -56 -30 -56 -19 0
-30 5 -30 14 0 10 -13 14 -46 14 -34 -1 -51 4 -67 21 -21 21 -21 23 -4 32 25
15 21 29 -9 29 -16 0 -24 5 -22 13 3 8 42 14 129 17 109 4 136 12 75 22 -11 2
-21 9 -24 16 -2 8 9 12 38 12 30 0 47 -6 66 -25z m509 -34 c11 -5 25 -4 31 0
18 15 337 7 342 -8 2 -7 -3 -13 -12 -13 -11 0 -16 -13 -18 -52 -3 -49 -5 -53
-30 -56 -24 -3 -28 0 -28 22 0 22 -4 26 -30 26 -16 0 -30 -4 -30 -10 0 -15
-43 -12 -66 4 -19 15 -19 15 0 29 23 17 13 37 -19 37 -22 0 -24 -5 -27 -52 -3
-49 -5 -53 -30 -56 -23 -3 -28 1 -28 17 0 25 -6 26 -55 5 -37 -15 -65 -13 -65
5 0 5 10 12 23 16 13 4 17 8 9 12 -7 2 -27 0 -44 -6 -26 -9 -35 -8 -47 4 -14
13 -13 15 2 15 14 0 16 6 11 25 -5 20 -1 27 17 34 29 12 67 12 94 2z"/>
<path d="M1242 549 c3 -10 27 -15 79 -17 59 -2 71 0 61 10 -6 6 -42 14 -78 16
-53 4 -66 2 -62 -9z"/>
<path d="M1025 420 c3 -5 15 -10 25 -10 10 0 22 5 25 10 4 6 -7 10 -25 10 -18
0 -29 -4 -25 -10z"/>
<path d="M1898 555 c-17 -17 7 -25 75 -25 55 0 68 3 59 12 -13 13 -123 24
-134 13z"/>
<path d="M1680 420 c0 -5 11 -10 25 -10 14 0 25 5 25 10 0 6 -11 10 -25 10
-14 0 -25 -4 -25 -10z"/>
<path d="M1093 213 c-15 -32 -12 -37 22 -29 18 5 25 13 25 31 0 34 -31 33 -47
-2z"/>
<path d="M1730 229 c0 -5 5 -7 10 -4 6 3 10 8 10 11 0 2 -4 4 -10 4 -5 0 -10
-5 -10 -11z"/>
<path d="M1807 233 c-13 -12 -7 -23 13 -23 11 0 20 7 20 15 0 15 -21 21 -33 8z"/>
<path d="M2017 233 c-15 -14 -6 -23 23 -23 20 0 30 5 30 15 0 15 -40 21 -53 8z"/>
</g>
</svg>
